# xmcd CD database file
#
# Track frame offsets:
#	150
#	22042
#	51720
#	65515
#	80670
#	108185
#	120042
#	136132
#	150925
#	171827
#	189647
#	217225
#	230455
#	244572
#	259065
#
# Disc length: 3711 seconds
#
# Revision: 1
# Processed by: cddbd v1.5.2PL0 Copyright (c) Steve Scherf et al.
# Submitted via: CDex 1.51
#
DISCID=cb0e7d0f
DTITLE=Various Artist - Blues Story #7 - Les Guitar Heroes du Blues
DYEAR=1998
DGENRE=Blues
TTITLE0=Johnny Winter - Mojo Boogie
TTITLE1=Albert King - I'll Play The Blues For You (Live)
TTITLE2=Freddie King - Lowdown In Lodi
TTITLE3=Popa Chubby - It All Turns To Gold 
TTITLE4=Kenny Wayne Sheperd - Deja Voodoo
TTITLE5=Roy Buchanan - Petal To The Metal
TTITLE6=Mike Bloomfield - Mama Lion
TTITLE7=Buddy Guy - Cry And Sing The Blues
TTITLE8=Albert Collins - Frosty (Live)
TTITLE9=Hound Dog Taylor - Taylor's Rock
TTITLE10=Rory Gallagher - Messin' With The Kid (Live)
TTITLE11=Elvin Bishop - Devil's Slide
TTITLE12=Tom Principato - One For Danny
TTITLE13=John Mayall and Eric Clapton - Hideaway
TTITLE14=Peter Green) - The Stumble
EXTD=YEAR: 1998
EXTT0=
EXTT1=
EXTT2=
EXTT3=
EXTT4=
EXTT5=
EXTT6=
EXTT7=
EXTT8=
EXTT9=
EXTT10=
EXTT11=
EXTT12=
EXTT13=
EXTT14=
PLAYORDER=
